<svg xmlns="http://www.w3.org/2000/svg" width="256" height="256" viewBox="0 0 256 256" fill="none">
  <defs>
    <linearGradient id="sky" x1="128" y1="26" x2="128" y2="232" gradientUnits="userSpaceOnUse">
      <stop stop-color="#FFF6EA"/>
      <stop offset=".56" stop-color="#FFD7B8"/>
      <stop offset="1" stop-color="#7FA99B"/>
    </linearGradient>
    <radialGradient id="sun" cx="0" cy="0" r="1" gradientUnits="userSpaceOnUse" gradientTransform="translate(128 104) scale(76)">
      <stop stop-color="#FFFFFF"/>
      <stop offset=".44" stop-color="#FFF3DD"/>
      <stop offset="1" stop-color="#FFD7B8" stop-opacity="0"/>
    </radialGradient>
    <filter id="soft-shadow" x="20" y="28" width="216" height="216" filterUnits="userSpaceOnUse" color-interpolation-filters="sRGB">
      <feDropShadow dx="0" dy="8" stdDeviation="8" flood-color="#5A5148" flood-opacity=".12"/>
    </filter>
  </defs>

  <g filter="url(#soft-shadow)">
    <rect x="34" y="34" width="188" height="188" rx="48" fill="url(#sky)"/>
    <circle cx="128" cy="105" r="76" fill="url(#sun)"/>
    <circle cx="128" cy="104" r="38" stroke="white" stroke-width="7" stroke-opacity=".95"/>
    <path d="M34 163C62 147 84 147 111 163C139 180 160 177 188 158C202 149 213 145 222 144V222H34V163Z" fill="#7FA99B" fill-opacity=".54"/>
    <path d="M34 151C62 130 91 132 121 153C149 172 176 167 222 136V222H34V151Z" fill="#D98257" fill-opacity=".27"/>
    <path d="M34 179C70 165 95 167 126 182C154 195 183 192 222 172V222H34V179Z" fill="#302823" fill-opacity=".16"/>
    <path d="M68 184C93 177 114 177 139 185C164 193 184 191 210 181" stroke="white" stroke-opacity=".36" stroke-width="3" stroke-linecap="round"/>
  </g>
</svg>
